<?xml version="1.0" standalone="no"?><svg xmlns="http://www.w3.org/2000/svg"><metadata>Created by youziku.com at Sat, 26 Sep 2015 02:40:37 GMT</metadata><defs><font id="SiYuan-ExtraLight" horiz-adv-x="1000" ><font-face font-family="SiYuan-ExtraLight" font-weight="400" font-stretch="normal" font-style="normal" units-per-em="1000" panose-1="2 1 6 0 3 1 1 1 1 1" ascent="860" descent="-140" bbox="-33 -275 1000 924" underline-thickness="40" underline-position="-60" unicode-range="U+0021-FFE5"  /><missing-glyph /><glyph glyph-name="" unicode="" /><glyph glyph-name="quotedblleft" unicode="&#x201C;" d="M771 636c0 -31 -26 -56 -57 -56c-94 0 -79 135 -35 189c23 29 47 52 77 65l13 -23c-57 -31 -86 -74 -87 -131c34 27 89 8 89 -44zM951 636c0 -31 -26 -56 -57 -56c-94 0 -79 135 -35 189c23 29 47 52 77 65l13 -23c-57 -31 -86 -74 -87 -131c34 27 89 8 89 -44z" /><glyph glyph-name="quotedblright" unicode="&#x201D;" d="M229 778c0 30 25 56 57 56c94 0 79 -135 35 -189c-23 -29 -47 -52 -77 -65l-13 23c57 31 86 74 87 131c-34 -27 -89 -8 -89 44zM49 778c0 30 25 56 57 56c94 0 79 -135 35 -189c-23 -29 -47 -52 -77 -65l-13 23c57 31 86 74 87 131c-34 -27 -89 -8 -89 44z" /><glyph glyph-name="uni3002" unicode="&#x3002;" d="M195 240c76 0 143 -67 143 -143s-67 -143 -143 -143s-143 67 -143 143s67 143 143 143zM195 -16c61 0 113 52 113 113s-52 113 -113 113c-60 0 -113 -52 -113 -113s52 -113 113 -113z" /><glyph glyph-name="uni4E00" unicode="&#x4E00;" d="M955 407v-33h-905v33h905z" /><glyph glyph-name="uni4E0A" unicode="&#x4E0A;" d="M942 5v-29h-883v29h392v808h29v-330h395v-29h-395v-449h462z" /><glyph glyph-name="uni4E0D" unicode="&#x4E0D;" d="M597 727c-21 -39 -49 -81 -84 -128v-669h-29v631c-117 -142 -253 -255 -409 -339l-19 23c224 119 393 279 507 482h-489v29h852v-29h-329zM590 527c111 -63 273 -177 355 -259l-19 -22c-91 89 -210 176 -355 262z" /><glyph glyph-name="uni4E2A" unicode="&#x4E2A;" d="M485 564h29v-635h-29v635zM933 384c-184 103 -324 213 -433 375c-115 -162 -259 -286 -431 -373c-6 7 -15 16 -22 20c201 100 356 242 466 425l25 -12c-7 -13 -15 -25 -23 -37c107 -164 253 -275 440 -376c-8 -4 -15 -11 -22 -22z" /><glyph glyph-name="uni4E3A" unicode="&#x4E3A;" d="M305 637c-27 47 -66 97 -117 149l24 14c53 -55 92 -103 117 -146zM466 829c0 -83 2 -170 -5 -246h426c-6 -207 -17 -378 -28 -460c-20 -152 -24 -193 -178 -182c-32 2 -62 3 -91 5c-1 11 -5 21 -10 29c50 -5 108 -7 164 -7c21 -1 35 4 44 13c17 17 31 67 41 150
c10 85 19 226 28 423h-399c-31 -300 -177 -480 -376 -615c-5 7 -13 14 -22 20c195 134 335 304 369 595h-339v29h342c7 76 5 163 5 246h29zM672 182c-33 61 -86 130 -158 205l24 14c70 -71 123 -138 159 -201z" /><glyph glyph-name="uni4E49" unicode="&#x4E49;" d="M466 835c34 -69 75 -166 96 -237l-26 -14c-19 71 -60 168 -94 238zM502 247c134 137 233 307 305 510l28 -11c-74 -209 -176 -378 -314 -519c129 -128 271 -220 427 -275c-7 -5 -15 -13 -22 -24c-156 58 -298 151 -425 278c-121 -115 -267 -206 -438 -272
c-5 9 -12 17 -19 22c173 65 319 156 437 271c-135 140 -242 306 -320 497l25 9c76 -185 181 -347 316 -486z" /><glyph glyph-name="uni4E9B" unicode="&#x4E9B;" d="M949 506c-12 -109 3 -159 -88 -159h-204c-71 2 -96 5 -96 69v414h29v-222c94 33 199 78 265 123l30 -21c-78 -48 -192 -94 -295 -130v-165c0 -26 21 -39 64 -39h207c23 0 38 9 45 26s11 56 14 118c8 -6 18 -11 29 -14zM175 214h666v-29h-666v29zM499 380
c-144 -20 -299 -43 -442 -63l-4 31l75 10v355h29v-351l121 16v452h29v-192h186v-29h-186v-227l191 26zM66 -13h869v-29h-869v29z" /><glyph glyph-name="uni4EA7" unicode="&#x4EA7;" d="M890 663h-772v29h410c-18 41 -45 83 -80 124l25 12c36 -41 64 -83 83 -124l-23 -12h357v-29zM372 479c-22 49 -52 99 -91 150l24 8c43 -56 74 -105 92 -147zM47 -55c85 114 99 302 92 509h476c36 57 66 118 91 182l28 -12c-25 -56 -60 -123 -90 -170h277v-29h-753
c6 -203 -14 -384 -98 -499c-4 6 -16 16 -23 19z" /><glyph glyph-name="uni4EBA" unicode="&#x4EBA;" d="M523 825c-19 -191 28 -338 82 -474c70 -176 180 -315 348 -391c-9 -5 -16 -13 -21 -23c-240 113 -369 358 -427 657c-48 -313 -185 -541 -427 -659c-4 7 -11 14 -21 21c291 142 430 441 436 869h30z" /><glyph glyph-name="uni4ED6" unicode="&#x4ED6;" d="M319 818c-33 -82 -70 -155 -110 -220v-667h-29v621c-42 -65 -87 -122 -135 -171c-6 9 -13 17 -22 23c114 110 203 251 268 422zM433 41c2 -64 24 -72 93 -72h312c84 10 70 49 83 153c11 -7 21 -12 30 -14c-14 -121 -7 -167 -117 -167h-303c-95 2 -127 12 -127 101v376
l-120 -47l-11 28l131 51v292h29v-281l199 77v292h29v-281l211 81l11 12c6 -6 25 -6 19 -18c-1 -120 0 -312 -16 -400c-12 -66 -84 -54 -154 -53c-2 9 -6 19 -11 29c50 4 127 -19 136 36c14 87 16 227 16 363l-212 -82v-379h-29v368l-199 -77v-388z" /><glyph glyph-name="uni4EEC" unicode="&#x4EEC;" d="M48 391c84 107 157 273 200 430l29 -7c-22 -73 -48 -144 -77 -214v-671h-29v607c-28 -58 -61 -114 -100 -168c-7 7 -16 19 -23 23zM361 647h29v-719h-29v719zM427 827c51 -71 90 -135 117 -194l-27 -13c-25 59 -64 125 -115 197zM804 -37c42 0 75 -10 75 25v772h-301v29
h331v-801c2 -81 -102 -49 -184 -57c-2 9 -6 20 -13 33c31 -1 61 -1 92 -1z" /><glyph glyph-name="uni4EF6" unicode="&#x4EF6;" d="M322 819c-27 -77 -61 -150 -102 -221v-667h-29v617c-37 -61 -78 -116 -123 -167c-7 8 -14 16 -22 23c104 109 187 250 248 423zM319 428c63 88 105 218 127 357l29 -5c-12 -63 -25 -118 -40 -166h186v205h29v-205h249v-29h-249v-269h289v-29h-289v-359h-29v359h-304v29
h304v269h-195c-25 -71 -52 -130 -82 -175c-8 7 -16 13 -25 18z" /><glyph glyph-name="uni503C" unicode="&#x503C;" d="M65 385c-4 7 -15 20 -21 24c104 108 187 249 248 422l28 -8c-29 -79 -66 -158 -111 -237v-657h-29v608c-37 -59 -76 -110 -115 -152zM417 -2h400v109h-400v-109zM417 539v-114h400v114h-400zM817 396h-400v-115h400v115zM417 136h400v116h-400v-116zM949 -2v-29h-666v29
h105v570h170c9 29 18 68 29 119h-263v29h268c8 41 15 79 20 116l33 -6c-7 -36 -14 -77 -22 -110h288v-29h-294c-11 -51 -21 -90 -29 -119h258v-570h103z" /><glyph glyph-name="uni505A" unicode="&#x505A;" d="M47 372c-5 6 -17 19 -23 24c97 109 175 251 232 426l28 -7c-21 -65 -48 -130 -81 -197v-690h-29v634c-39 -71 -81 -135 -127 -190zM332 347v-278h221v278h-221zM332 40v-61h-29v397h125v217h-163v29h163v198h29v-198h156v-29h-156v-217h125v-336h-250zM678 590
c14 -146 43 -285 90 -394c57 114 85 242 107 402h-194zM568 404c66 108 110 265 135 427l29 -5c-13 -75 -27 -141 -43 -199h261v-29h-45c-21 -175 -55 -314 -121 -435c45 -93 107 -164 184 -213c-11 -9 -19 -18 -22 -25c-76 52 -135 122 -180 208
c-54 -86 -125 -156 -213 -210c-7 8 -15 16 -24 24c96 54 170 126 223 217c-48 102 -78 228 -94 365c-16 -49 -36 -95 -61 -138c-9 6 -19 10 -29 13z" /><glyph glyph-name="uni5177" unicode="&#x5177;" d="M250 185h510v124h-510v-124zM250 751v-118h510v118h-510zM250 458v-120h510v120h-510zM760 604h-510v-117h510v117zM943 156h-883v29h161v595h568v-595h154v-29zM52 -48c97 38 227 112 290 174l34 -15c-74 -67 -199 -138 -303 -182zM649 127c114 -53 212 -108 295 -165
l-22 -25c-73 52 -170 108 -291 168z" /><glyph glyph-name="uni51FA" unicode="&#x51FA;" d="M881 334v-402h-29v60h-728v343h30v-314h331v388h-323v325h29v-296h294v392h29v-392h298v296h29v-325h-327v-388h338v313h29z" /><glyph glyph-name="uni5230" unicode="&#x5230;" d="M578 122l2 -28l-499 -101l-8 31l246 47v203h-210v29h210v127h29v-127h221v-29h-221v-197zM566 429c-16 26 -34 51 -51 75c-223 -27 -277 -25 -395 -50c-2 11 -7 27 -11 33c70 49 124 162 166 241h-195v29h507v-29h-278c-42 -84 -92 -169 -145 -234l333 35
c-29 39 -59 78 -93 119l23 12c69 -79 123 -150 162 -215zM660 750h29v-604h-29v604zM893 14c2 -79 -94 -50 -174 -57c-1 9 -6 21 -13 35c68 -2 114 -2 138 -1c13 1 20 8 20 22v795h29v-794z" /><glyph glyph-name="uni529B" unicode="&#x529B;" d="M897 601c-12 -209 -26 -387 -39 -475s-32 -143 -53 -167c-15 -17 -38 -26 -69 -27c-35 -1 -88 1 -160 7c-2 11 -5 23 -10 30c51 -6 109 -8 166 -8c22 0 38 5 47 14c20 19 36 72 49 159c13 91 26 237 38 438h-402c-20 -323 -168 -507 -379 -646c-6 7 -14 17 -21 22
c206 134 351 309 371 624h-345v29h345c4 72 1 151 2 227h29c-1 -76 2 -155 -2 -227h433z" /><glyph glyph-name="uni52A1" unicode="&#x52A1;" d="M851 270c-10 -94 -26 -184 -36 -227c-20 -87 -47 -110 -151 -102c-27 2 -53 2 -77 4c-1 8 -4 18 -9 29c50 -2 132 -17 175 2c13 11 24 37 34 76c11 43 21 106 31 189h-342c-64 -185 -187 -263 -401 -310c-3 11 -7 21 -13 29c203 37 323 109 382 281h-308v29h317
c9 33 16 72 21 115l31 -3c-5 -39 -11 -76 -20 -112h366zM334 691c-7 -6 -15 -16 -22 -22c44 -65 111 -119 202 -162c107 46 198 104 261 184h-441zM107 547c115 65 232 173 297 285l35 -6c-25 -38 -51 -73 -79 -106c148 1 301 -3 446 2l17 -15c-62 -93 -162 -163 -275 -214
c112 -45 246 -74 402 -85c-7 -7 -13 -17 -18 -28c-159 15 -302 46 -418 98c-128 -54 -287 -91 -452 -112c-3 11 -7 20 -12 29c154 15 309 51 431 99c-84 42 -147 94 -189 155c-49 -47 -103 -87 -161 -122c-8 9 -16 16 -24 20z" /><glyph glyph-name="uni52A8" unicode="&#x52A8;" d="M478 714h-380v29h380v-29zM88 66c-2 10 -7 26 -11 33c68 92 102 245 137 371h-154v29h437v-29h-253c-31 -134 -71 -254 -119 -360l307 58c-19 55 -48 129 -71 186l26 7c46 -107 83 -204 110 -292l-29 -12c-6 25 -19 58 -27 84c-202 -41 -247 -41 -353 -75zM717 813
c-1 -74 -2 -159 -5 -227h226c-5 -206 -14 -380 -25 -462c-19 -147 -16 -190 -165 -181c-30 1 -57 3 -82 5c-1 11 -4 21 -9 29c45 -4 98 -5 148 -6c19 0 32 3 41 13c15 16 28 66 37 149c9 86 18 227 25 424h-198c-15 -269 -64 -493 -209 -627c-7 8 -17 14 -28 17
c143 127 194 349 209 610h-171v29h172c4 73 5 146 5 227h29z" /><glyph glyph-name="uni5320" unicode="&#x5320;" d="M942 -7v-29h-833v802h810v-29h-781v-744h804zM793 632c-113 -28 -303 -45 -457 -48v-162h554v-29h-222v-371h-29v371h-303c3 -160 -31 -284 -106 -367c-5 7 -15 17 -23 19c69 76 100 185 100 332v231c146 5 350 20 458 46z" /><glyph glyph-name="uni53D1" unicode="&#x53D1;" d="M817 637c-36 45 -82 96 -139 153l23 15c55 -55 101 -104 138 -149zM391 397c45 -106 109 -195 192 -268c84 73 145 163 184 268h-376zM419 587c22 75 35 153 47 244l33 -5c-13 -86 -27 -165 -48 -239h464v-30h-472c-14 -49 -29 -93 -45 -131c129 1 263 -3 388 2l19 -10
c-41 -125 -110 -227 -201 -306c96 -78 211 -132 346 -162c-7 -6 -13 -14 -19 -24c-135 32 -251 88 -348 167c-89 -72 -199 -130 -323 -166c-4 9 -10 16 -16 23c123 34 232 90 318 162c-81 71 -144 157 -189 258c-74 -151 -173 -269 -308 -359c-5 7 -13 13 -23 19
c181 122 299 292 369 527c-82 -3 -198 9 -256 -11c-3 9 -7 27 -10 33c48 44 76 142 94 216l34 -9c-21 -75 -47 -141 -76 -199h222z" /><glyph glyph-name="uni53D8" unicode="&#x53D8;" d="M375 694h-300v29h440c-18 37 -39 72 -64 105l26 9c30 -39 53 -77 70 -114h379v-29h-302v-329h-29v329h-190v-331h-30v331zM731 623c77 -76 135 -147 173 -213l-27 -12c-37 63 -117 162 -171 216zM286 627c-35 -87 -83 -162 -145 -225c-6 6 -18 12 -26 17
c60 57 107 129 142 215zM258 301c57 -85 137 -155 240 -211c111 57 194 128 249 211h-489zM500 59c-120 -61 -260 -103 -417 -132c-5 9 -11 18 -18 27c149 25 289 67 405 122c-106 60 -187 135 -244 225h-83v29c211 1 427 -3 634 2l18 -15c-62 -103 -155 -184 -267 -243
c120 -59 259 -99 418 -120c-7 -7 -12 -16 -17 -26c-163 23 -306 66 -429 131z" /><glyph glyph-name="uni53EA" unicode="&#x53EA;" d="M911 -74c-68 82 -206 202 -300 271l23 16c127 -91 227 -179 302 -266zM51 -52c106 58 234 168 296 263l29 -10c-68 -100 -196 -211 -305 -276c-6 8 -13 16 -20 23zM198 356h604v369h-604v-369zM831 754v-427h-662v427h662z" /><glyph glyph-name="uni53EF" unicode="&#x53EF;" d="M205 514v-299h334v299h-334zM205 186v-83h-29v440h392v-357h-363zM810 -7c-4 -63 -39 -62 -111 -62h-120c-3 8 -7 19 -14 34c56 -2 136 -4 189 -1c18 1 27 12 27 29v733h-718v29h877v-29h-130v-733z" /><glyph glyph-name="uni5473" unicode="&#x5473;" d="M113 705v-506h166v506h-166zM113 170v-75h-29v639h224v-564h-195zM684 377c66 -165 154 -286 264 -363c-8 -6 -16 -14 -23 -23c-113 87 -202 217 -271 386v-448h-29v447c-73 -176 -174 -306 -303 -390c-4 7 -11 14 -22 22c125 75 224 198 297 369h-243v29h271v215h-225
v29h225v178h29v-178h232v-29h-232v-215h283v-29h-253z" /><glyph glyph-name="uni548C" unicode="&#x548C;" d="M485 796c-54 -21 -116 -37 -186 -50v-209h204v-29h-204v-34c67 -71 128 -143 183 -217l-23 -24c-30 43 -127 165 -160 202v-503h-29v518c-64 -151 -137 -268 -219 -351c-4 8 -11 16 -21 25c98 97 176 225 233 384h-206v29h213v204c-57 -11 -126 -20 -188 -28
c-1 7 -5 15 -10 25c125 16 300 45 390 81zM860 85v623h-286v-623h286zM889 737v-760h-29v79h-286v-86h-29v767h344z" /><glyph glyph-name="uni54C1" unicode="&#x54C1;" d="M728 756h-449v-246h449v246zM757 481h-507v304h507v-304zM125 322v-305h271v305h-271zM96 351h329v-410h-29v47h-271v-59h-29v422zM886 17v305h-297v-305h297zM915 351v-414h-29v51h-297v-59h-29v422h355z" /><glyph glyph-name="uni56DE" unicode="&#x56DE;" d="M654 530h-310v-286h310v286zM683 559v-344h-368v344h368zM878 14v740h-755v-740h755zM907 783v-852h-29v54h-755v-54h-29v852h813z" /><glyph glyph-name="uni5728" unicode="&#x5728;" d="M369 630c-37 -78 -77 -147 -124 -211v-485h-29v446c-45 -53 -92 -98 -143 -137c-5 7 -14 17 -20 21c119 89 216 219 284 366h-267v29h280c23 51 44 108 62 171l30 -8c-16 -54 -36 -108 -60 -163h548v-29h-561zM933 -19v-29h-610v29h288v339h-247v29h247v220h29v-220h254
v-29h-254v-339h293z" /><glyph glyph-name="uni5947" unicode="&#x5947;" d="M858 452c-100 51 -277 128 -390 169c-61 -89 -183 -147 -364 -174c-4 9 -9 17 -14 24c202 33 320 78 385 229h-365v29h374c8 25 15 58 21 101h31c-5 -36 -12 -70 -20 -101h384v-29h-393c-7 -19 -15 -37 -24 -54c152 -57 284 -113 396 -170zM202 264v-181h309v181h-309z
M540 54h-338v-70h-29v309h367v-239zM791 -16c1 -72 -83 -49 -156 -55h-68c-1 7 -6 18 -13 31c59 -2 129 -3 182 -1c17 1 26 10 26 25v411h-702v29h883v-29h-152v-411z" /><glyph glyph-name="uni5B9E" unicode="&#x5B9E;" d="M133 519h-29v177h414c-19 45 -43 86 -70 125l28 9c34 -50 58 -93 73 -130l-10 -4h358v-177h-29v148h-735v-148zM399 447c-37 43 -87 83 -150 120l20 19c65 -39 115 -78 150 -118zM170 427c71 -39 125 -80 163 -122l-19 -24c-43 47 -98 89 -163 126zM903 -62
c-92 76 -232 154 -358 210l17 21c126 -55 271 -133 361 -210zM553 609c-4 -136 -12 -273 -45 -372h423v-29h-434c-69 -161 -193 -228 -393 -272c-3 8 -13 19 -18 26c191 40 310 99 379 246h-390v29h402c35 95 43 240 46 372h30z" /><glyph glyph-name="uni5BB6" unicode="&#x5BB6;" d="M127 546h-29v185h393c-17 34 -34 68 -53 93l28 9c26 -38 45 -72 58 -102h385v-185h-29v156h-753v-156zM437 475c52 -49 91 -111 117 -186c99 61 182 122 251 184l25 -18c-49 -43 -122 -93 -180 -133c58 -164 159 -273 302 -328c-9 -8 -16 -16 -20 -24
c-143 60 -244 172 -305 336l-65 -40c39 -145 27 -334 -132 -334c-26 0 -56 1 -89 3c0 8 -3 17 -8 28c122 -14 196 -8 214 102c8 48 8 99 -3 154c-123 -106 -273 -185 -451 -236c-3 9 -9 18 -17 27c154 36 366 145 461 238c-10 40 -23 75 -40 104
c-89 -69 -262 -151 -384 -190c-3 9 -9 18 -17 27c120 31 306 119 388 186c-19 33 -42 61 -68 86c-87 -51 -195 -97 -303 -132c-5 8 -13 22 -20 25c139 41 291 106 385 181h-276v29h596v-29h-279c-25 -22 -52 -42 -82 -60z" /><glyph glyph-name="uni5C06" unicode="&#x5C06;" d="M586 718c-61 -52 -130 -95 -205 -129l-19 18c133 60 229 134 288 222l29 -11c-14 -21 -34 -44 -61 -71c89 1 184 -3 270 2l19 -12c-96 -188 -292 -293 -523 -349c-2 7 -11 20 -16 25c96 21 189 53 266 95c-28 41 -67 81 -116 120l23 15c53 -42 93 -82 118 -120
c94 55 162 120 205 195h-278zM205 503c-31 59 -79 118 -145 177l23 16c69 -62 118 -120 146 -174zM256 829h29v-899h-29v395c-61 -62 -122 -124 -184 -185l-24 22c53 48 123 115 208 202v465zM461 247c68 -62 117 -122 146 -181l-25 -18c-29 59 -77 120 -146 184zM807 -20
c3 -77 -112 -43 -182 -51c-1 5 -6 15 -13 30c73 -2 122 -2 145 -1c14 1 21 8 21 21v329h-430v29h430v151h29v-151h133v-29h-133v-328z" /><glyph glyph-name="uni5DE5" unicode="&#x5DE5;" d="M942 43v-29h-882v29h425v636h-376v29h789v-29h-384v-636h428z" /><glyph glyph-name="uni5E76" unicode="&#x5E76;" d="M347 634c-23 57 -61 118 -116 181l25 12c56 -64 95 -124 116 -179zM672 329v259h-338c-1 -86 1 -175 -1 -259h339zM627 617c33 52 80 150 105 213l30 -12c-30 -65 -71 -145 -104 -201h250v-29h-207v-259h241v-29h-241v-370h-29v370h-340c-12 -200 -111 -301 -253 -375
c-4 7 -11 14 -21 21c136 70 231 165 245 354h-244v29h245c2 84 0 173 1 259h-205v29h527z" /><glyph glyph-name="uni5EAD" unicode="&#x5EAD;" d="M153 703c-1 -281 15 -578 -78 -774c-4 6 -18 13 -25 18c93 191 72 502 74 785h422c-10 32 -24 64 -43 96l26 7c22 -33 38 -68 47 -103h365v-29h-788zM505 554c116 14 273 39 352 73l20 -26c-40 -16 -92 -30 -157 -43v-175h168v-29h-168v-215h201v-29h-433v29h203v215
h-170v29h170v170c-63 -11 -122 -19 -175 -25c-2 8 -6 17 -11 26zM352 79c79 -75 183 -100 343 -100h255c-5 -7 -10 -19 -13 -28h-242c-170 0 -277 25 -361 105c-40 -49 -92 -90 -156 -121c-3 7 -13 18 -20 22c63 28 115 68 157 120c-39 45 -70 106 -92 181l24 11
c21 -72 50 -128 85 -169c46 66 78 148 95 245c-65 0 -130 0 -194 1c45 59 103 156 147 226h-183v29h234c-48 -77 -96 -152 -146 -227c53 1 108 -1 159 1l17 -6c-21 -121 -57 -217 -109 -290z" /><glyph glyph-name="uni5F52" unicode="&#x5F52;" d="M146 240h-30v468h30v-468zM131 -48c136 96 193 243 193 481v397h29c-11 -284 40 -619 -94 -793c-29 -38 -64 -75 -107 -106c-5 9 -12 16 -21 21zM894 725v-770h-28v69h-421v29h421v321h-374v29h374v296h-404v26h432z" /><glyph glyph-name="uni610F" unicode="&#x610F;" d="M880 709h-760v29h398c-16 30 -35 59 -56 86l26 11c27 -32 49 -64 66 -97h326v-29zM334 579c-10 39 -28 77 -53 116l27 10c27 -40 46 -78 55 -115zM82 -29c47 41 87 110 117 177l24 -11c-29 -66 -69 -139 -115 -181zM777 456h-549v-95h549v95zM777 332h-549v-96h549v96z
M806 207h-607v278h607v-278zM441 198c67 -41 119 -82 156 -123l-21 -19c-35 41 -87 83 -156 126zM409 -63c-70 3 -99 -2 -99 57v153h29v-154c0 -18 23 -27 68 -27h216c67 7 49 35 59 120c7 -5 16 -9 29 -13c-10 -98 0 -136 -86 -136h-216zM777 160c62 -58 109 -114 142 -168
l-25 -16c-31 55 -78 112 -141 171zM929 578v-29h-852v29h548c25 39 47 83 68 130l28 -11c-19 -37 -43 -87 -62 -119h270z" /><glyph glyph-name="uni6211" unicode="&#x6211;" d="M875 610c-39 55 -97 114 -172 178l25 16c74 -63 131 -121 172 -173zM594 523c-8 99 -14 197 -15 299h30c1 -104 5 -204 14 -299h317v-29h-313c12 -111 30 -208 55 -292c68 73 124 151 167 233l28 -12c-45 -89 -107 -173 -186 -254c49 -142 109 -213 180 -213
c30 0 48 64 53 193c9 -7 19 -11 28 -13c-4 -80 -11 -134 -22 -163c-12 -31 -32 -47 -61 -47c-82 0 -149 73 -200 220c-77 -74 -157 -132 -239 -174c-7 9 -15 16 -23 22c91 46 175 108 251 185c-27 89 -47 194 -61 315h-267v-209l202 50l3 -27l-205 -53v-273
c0 -27 -11 -45 -34 -50c-20 -5 -72 -6 -155 -5c-1 8 -9 22 -12 30c32 -1 63 -1 94 -1c44 0 78 -10 78 25v268c-78 -21 -156 -41 -236 -60l-14 29c73 17 157 37 250 60v216h-239v29h239v208c-70 -16 -141 -31 -211 -41c-2 6 -8 17 -11 24c134 24 298 59 397 98l25 -23
c-42 -17 -99 -34 -171 -51v-215h264z" /><glyph glyph-name="uni6237" unicode="&#x6237;" d="M523 672c-14 47 -35 99 -62 155l27 8c22 -44 51 -108 64 -153zM795 397v245h-572c-1 -81 1 -165 -1 -245h573zM42 -57c106 120 153 291 152 519v209h630v-381h-29v78h-575c-11 -188 -61 -336 -154 -443c-7 8 -15 14 -24 18z" /><glyph glyph-name="uni6240" unicode="&#x6240;" d="M140 551v-200h253v200h-253zM476 784c-74 -43 -221 -70 -336 -85v-119h282v-258h-283c-4 -153 -23 -287 -74 -391c-7 9 -15 16 -24 19c95 184 65 498 70 773c115 14 272 42 343 84zM923 795c-82 -43 -235 -77 -357 -96v-211h380v-29h-142v-530h-29v530h-209
c6 -222 -16 -415 -117 -531c-5 7 -12 14 -23 20c82 96 111 237 111 418v355c120 20 282 54 362 97z" /><glyph glyph-name="uni624D" unicode="&#x624D;" d="M506 -25c49 0 87 -11 87 28v571c-114 -186 -340 -408 -531 -510c-5 9 -11 18 -19 26c190 95 419 319 527 501h-498v29h521v212h29v-212h310v-29h-310v-587c0 -28 -12 -45 -37 -51c-17 -4 -75 -6 -172 -5c-2 9 -9 20 -13 28c36 -1 71 -1 106 -1z" /><glyph glyph-name="uni631A" unicode="&#x631A;" d="M905 361c-124 0 -101 198 -106 335h-152c-7 -56 -15 -99 -30 -141c55 -35 97 -66 126 -95l-20 -25c-26 27 -65 58 -117 92c-32 -73 -89 -128 -172 -163c-5 7 -15 15 -22 21c80 32 136 85 169 158c-34 21 -67 38 -98 53l18 22c30 -14 60 -30 90 -48c13 40 21 82 26 126
h-146v29h149c3 29 6 65 7 106h30l-7 -106h178c0 -81 0 -185 11 -250c11 -58 33 -87 68 -87c16 0 25 39 27 116c10 -7 19 -12 26 -14c-3 -51 -7 -85 -14 -102c-7 -18 -20 -27 -41 -27zM69 530c61 12 122 24 182 36v126h-172v29h172v110h29v-110h154v-29h-154v-120l150 31
l2 -31l-152 -31v-142c0 -20 -8 -32 -24 -37c-15 -4 -54 -6 -117 -5c-2 7 -8 19 -11 26c58 -1 93 0 106 0c11 0 17 5 17 15v136l-172 -35zM819 340c-90 -17 -192 -27 -305 -35v-83h370v-29h-370v-80h436v-29h-436c-7 -53 20 -137 -28 -150c-17 -5 -69 -6 -156 -5
c-1 5 -5 14 -12 26c33 -1 64 -1 94 -1c40 0 73 -10 73 20v110h-435v29h435v80h-360v29h360v81c-120 -7 -235 -12 -346 -14c-1 6 -3 15 -8 27c226 6 470 17 663 50z" /><glyph glyph-name="uni6563" unicode="&#x6563;" d="M207 516h171v153h-171v-153zM530 487h-480v29h128v153h-112v29h112v127h29v-127h171v127h29v-127h114v-29h-114v-153h123v-29zM428 141v101h-270v-101h270zM158 370v-99h270v99h-270zM457 -24c0 -21 -8 -34 -24 -39c-13 -4 -53 -5 -121 -5c-2 8 -6 17 -12 28
c34 -1 74 -1 111 -1c11 1 17 6 17 17v136h-270v-183h-29v470h328v-423zM624 611c-1 -3 -3 -12 -5 -16c24 -150 61 -278 112 -384c61 112 96 241 121 400h-228zM494 395c72 107 123 271 152 434l31 -5c-14 -69 -28 -125 -45 -184h320v-29h-69c-28 -172 -66 -311 -135 -432
c57 -107 126 -183 209 -227c-11 -8 -19 -16 -23 -24c-81 47 -149 121 -204 223c-58 -91 -137 -166 -238 -224c-5 9 -12 18 -21 25c103 55 184 131 244 229c-49 98 -87 219 -114 362c-23 -61 -49 -116 -78 -164z" /><glyph glyph-name="uni662F" unicode="&#x662F;" d="M788 753h-583v-113h583v113zM788 611h-583v-114h583v114zM817 468h-641v314h641v-314zM284 299c-8 -41 -16 -73 -27 -106c44 -108 111 -169 234 -195v349h-432v29h882v-29h-421v-148h355v-29h-355v-178c124 -17 291 -7 432 -10c-7 -10 -12 -20 -13 -29h-263
c-228 -3 -360 45 -433 202c-39 -97 -96 -172 -171 -227c-5 7 -16 16 -23 22c107 73 175 190 205 353z" /><glyph glyph-name="uni6700" unicode="&#x6700;" d="M794 769h-579v-98h579v98zM794 642h-579v-101h579v101zM823 512h-637v286h637v-286zM188 39c78 10 155 20 232 30v85h-232v-115zM188 408v-96h232v96h-232zM188 183h232v100h-232v-100zM449 47v-118h-29v114l-363 -51l-6 31c31 4 81 8 108 12v373h-104v29h887v-29h-493
v-335l62 8v-25zM580 290c31 -78 75 -145 134 -201c61 53 114 122 145 201h-279zM898 311c-31 -94 -86 -174 -164 -241c65 -55 137 -94 218 -115c-7 -7 -14 -16 -19 -25c-85 26 -158 67 -219 122c-67 -53 -141 -93 -222 -120c-4 9 -10 18 -17 25c79 23 151 61 217 114
c-63 61 -109 134 -140 219h-57v29c128 1 261 -3 386 2z" /><glyph glyph-name="uni6709" unicode="&#x6709;" d="M303 480v-142h476v142h-476zM779 164v145h-476v-145h476zM808 -13c2 -83 -128 -43 -203 -53c-1 10 -9 22 -13 30c51 -2 116 -3 163 -1c16 1 24 9 24 24v148h-476v-206h-29v538c-59 -83 -126 -151 -202 -205c-3 6 -12 17 -17 23c127 89 231 225 300 377h-283v29h296
c21 51 38 97 49 138l28 -8c-16 -49 -32 -93 -47 -130h533v-29h-546c-23 -51 -51 -102 -83 -153h506v-522z" /><glyph glyph-name="uni670D" unicode="&#x670D;" d="M361 303v218h-208c0 -76 1 -141 -3 -218h211zM153 762v-212h208v212h-208zM390 -22c0 -23 -9 -39 -28 -44c-17 -5 -60 -6 -128 -5c-3 10 -7 19 -11 28c63 -1 102 -1 117 0c14 1 21 8 21 21v296h-213c-9 -130 -32 -257 -78 -346c-8 8 -16 13 -25 16c105 201 74 544 79 847
h266v-813zM613 425c33 -111 80 -208 139 -291c65 84 112 181 139 291h-278zM576 -60c-4 7 -13 18 -19 22c62 32 121 82 177 149c-64 89 -114 194 -150 314h-45v-496h-29v857h388v-193c0 -21 -9 -34 -26 -39c-15 -4 -63 -6 -142 -6c-1 9 -9 20 -13 28c73 -1 118 -1 133 0
c13 1 19 6 19 17v164h-330v-303c122 1 250 -3 369 2l17 -8c-29 -131 -84 -248 -155 -338c57 -73 119 -127 186 -160c-9 -7 -16 -14 -23 -23c-66 37 -127 90 -182 161c-52 -61 -110 -111 -175 -148z" /><glyph glyph-name="uni671F" unicode="&#x671F;" d="M182 207h239v136h-239v-136zM182 653v-119h239v119h-239zM182 372h239v133h-239v-133zM537 178h-490v29h106v446h-91v29h91v136h29v-136h239v136h29v-136h80v-29h-80v-446h87v-29zM230 136c-35 -79 -85 -148 -148 -206c-6 6 -14 12 -25 19c61 52 109 117 144 194z
M365 138c45 -55 78 -105 99 -151l-26 -16c-20 48 -53 99 -98 154zM888 304v209h-265c0 -74 1 -136 -3 -209h268zM623 747v-205h265v205h-265zM492 -59c132 178 97 527 102 835h323v-787c0 -25 -10 -41 -30 -47c-15 -4 -60 -6 -137 -6c-2 9 -6 19 -13 31c70 -1 113 -1 130 0
c14 1 21 8 21 22v286h-270c-10 -141 -41 -265 -101 -353c-4 6 -17 17 -25 19z" /><glyph glyph-name="uni6734" unicode="&#x6734;" d="M290 630h176v-29h-176v-41c54 -70 111 -154 162 -228l-27 -26c-25 49 -98 152 -135 208v-583h-29v583c-39 -126 -110 -279 -178 -367c-6 10 -13 18 -22 24c89 107 154 251 197 430h-199v29h202v200h29v-200zM937 281c-74 73 -172 146 -295 220v-569h-29v899h29v-316
l11 12c97 -56 233 -152 304 -222z" /><glyph glyph-name="uni673D" unicode="&#x673D;" d="M270 560c45 -57 142 -192 174 -238l-21 -26c-42 67 -93 142 -153 223v-588h-29v593c-37 -127 -105 -280 -172 -366c-5 9 -13 16 -22 23c83 103 145 244 187 421h-173v29h180v199h29v-199h148v-29h-148v-42zM605 727c-23 -117 -46 -228 -71 -331h365
c-11 -134 -20 -261 -34 -319c-22 -96 -23 -134 -114 -139c-56 -3 -131 3 -187 8c-1 11 -5 21 -11 29c60 -6 125 -8 191 -9c27 0 43 4 50 11c17 15 31 50 42 107c11 58 21 152 31 283h-372c26 92 59 246 81 360h-167v29h543v-29h-347z" /><glyph glyph-name="uni6781" unicode="&#x6781;" d="M255 559c17 -21 105 -155 121 -182l-22 -26c-25 48 -58 103 -99 165v-585h-29v588c-35 -125 -96 -275 -159 -361c-6 10 -13 18 -22 23c77 103 135 244 174 421h-143v29h150v200h29v-200h131v-29h-131v-43zM556 733c-2 -70 -7 -130 -11 -197c38 -163 99 -297 182 -403
c72 87 122 190 151 311h-191c28 75 62 197 85 289h-216zM916 465c-33 -142 -89 -260 -169 -355c61 -71 131 -121 210 -152c-7 -5 -15 -14 -23 -26c-78 34 -147 86 -207 155c-60 -66 -134 -119 -219 -160c-6 8 -15 20 -22 24c87 40 161 93 221 160c-75 94 -130 213 -169 347
c-23 -227 -81 -405 -205 -529l-27 19c177 157 211 453 219 785h-133v29h419c-26 -96 -54 -196 -83 -289c56 1 117 -3 169 2z" /><glyph glyph-name="uni6B63" unicode="&#x6B63;" d="M942 9v-29h-883v29h150v497h29v-497h268v710h-405v29h803v-29h-369v-315h342v-29h-342v-366h407z" /><glyph glyph-name="uni6D3B" unicode="&#x6D3B;" d="M231 414c-50 35 -111 72 -182 110l18 21c53 -27 137 -75 181 -106zM80 -36c63 89 126 198 191 329l22 -19c-50 -100 -130 -243 -187 -330zM115 818c79 -37 143 -73 192 -108l-17 -25c-57 39 -121 76 -192 113zM836 272h-415v-269h415v269zM649 506v-205h216v-365h-29v38
h-415v-45h-29v372h228v205h-310v29h310v208c-90 -13 -172 -24 -246 -31c-2 8 -5 17 -9 26c176 20 357 43 506 85l26 -23c-64 -20 -147 -37 -248 -52v-213h296v-29h-296z" /><glyph glyph-name="uni7269" unicode="&#x7269;" d="M42 427c43 90 65 214 80 345l31 -5c-7 -51 -15 -109 -25 -154h111v215h29v-215h123v-29h-123v-250l140 45l4 -26c-48 -16 -96 -32 -144 -49v-375h-29v367c-60 -21 -121 -41 -183 -60l-11 29l194 60v259h-117c-13 -66 -31 -123 -52 -171c-5 4 -20 10 -28 14zM364 438
c88 93 152 239 188 392l30 -6c-14 -56 -32 -114 -55 -174h409c-12 -223 -27 -412 -42 -509c-13 -92 -31 -150 -53 -175c-35 -39 -105 -25 -176 -22c-1 14 -4 24 -9 30c50 1 129 -20 159 10c20 20 36 77 50 169c15 101 28 257 40 468h-92c-57 -282 -157 -530 -340 -681
c-9 9 -19 16 -29 20c169 123 292 398 339 661h-117c-46 -176 -149 -379 -265 -474c-9 9 -18 16 -26 20c113 88 217 286 260 454h-121c-35 -80 -76 -148 -124 -203c-7 7 -15 13 -26 20z" /><glyph glyph-name="uni751F" unicode="&#x751F;" d="M77 428c85 93 152 234 191 381l30 -6c-19 -67 -41 -127 -64 -180h253v207h29v-207h382v-29h-382v-263h348v-29h-348v-308h426v-29h-882v29h427v308h-324v29h324v263h-267c-33 -71 -71 -132 -115 -184c-8 7 -17 13 -28 18z" /><glyph glyph-name="uni7528" unicode="&#x7528;" d="M843 279v212h-329v-212h329zM485 279v212h-291c0 -71 1 -148 -4 -212h295zM194 727v-207h291v207h-291zM514 727v-207h329v207h-329zM42 -54c90 101 123 251 123 445v365h707v-763c0 -30 -12 -48 -37 -54c-19 -5 -79 -6 -181 -5c-3 10 -7 20 -12 30c38 -1 75 -1 111 -1
c50 0 90 -12 90 29v258h-329v-314h-29v314h-298c-13 -137 -55 -245 -124 -326c-5 9 -12 16 -21 22z" /><glyph glyph-name="uni7684" unicode="&#x7684;" d="M390 642h-261v-260h261v260zM390 66v287h-261v-287h261zM295 824c-16 -47 -38 -113 -55 -153h179v-634h-290v-86h-29v720h110c25 58 42 112 53 163zM456 461c70 94 124 235 154 378l30 -6c-13 -55 -28 -110 -47 -164h319c-6 -232 -18 -423 -28 -513
c-10 -93 -23 -153 -44 -174c-45 -46 -110 -24 -205 -22c-3 10 -4 24 -10 30c46 -3 97 -6 147 -6c21 0 33 6 41 15c16 19 31 73 41 166c10 95 19 253 28 475h-300c-29 -78 -62 -143 -99 -194c-7 6 -16 11 -27 15zM735 205c-40 73 -96 151 -168 234l24 14
c54 -63 131 -162 169 -231z" /><glyph glyph-name="uni771F" unicode="&#x771F;" d="M65 -46c94 29 227 84 293 131l33 -16c-76 -51 -203 -107 -305 -139zM633 83c121 -41 223 -84 306 -127l-21 -23c-79 43 -179 86 -302 129zM242 156h518v95h-518v-95zM242 588v-91h518v91h-518zM242 361v-81h518v81h-518zM760 468h-518v-78h518v78zM942 156v-29h-883v29
h154v461h243c4 23 8 50 12 83h-378v29h382c3 31 9 72 10 102l32 -6l-13 -96h413v-29h-417l-13 -83h305v-461h153z" /><glyph glyph-name="uni77E5" unicode="&#x77E5;" d="M48 495c64 83 111 209 137 336l30 -6c-9 -45 -22 -91 -38 -137h310v-29h-177c-1 -80 1 -163 -1 -241h212v-29h-213c-4 -31 -6 -68 -13 -95c69 -70 144 -153 210 -228l-21 -25c-38 49 -142 162 -194 221c-37 -148 -113 -252 -225 -331c-6 11 -12 18 -19 23
c133 93 218 226 233 435h-226v29h227c2 78 0 161 1 241h-114c-27 -73 -58 -134 -93 -181c-4 5 -18 13 -26 17zM867 73v640h-279v-640h279zM896 742v-776h-29v78h-279v-86h-29v784h337z" /><glyph glyph-name="uni795E" unicode="&#x795E;" d="M277 681c-22 41 -55 85 -99 130l22 17c45 -46 79 -89 102 -128zM393 643c-30 -75 -75 -148 -134 -221c48 -49 96 -99 143 -150l-21 -24c-29 37 -97 108 -136 149v-467h-29v442c-50 -54 -99 -98 -146 -133c-6 9 -14 16 -23 21c117 81 248 229 306 364h-291v29
c104 1 213 -3 313 2zM883 232v186h-195v-186h195zM659 232v186h-191v-186h191zM468 629v-182h191v182h-191zM688 629v-182h195v182h-195zM912 658v-500h-29v45h-195v-272h-29v272h-191v-50h-29v505h220v172h29v-172h224z" /><glyph glyph-name="uni79CD" unicode="&#x79CD;" d="M66 707c-2 6 -7 18 -10 24c102 17 244 47 316 80l24 -23c-36 -15 -81 -29 -136 -43v-198h147v-29h-147v-27c21 -26 126 -166 143 -192l-22 -24c-22 39 -91 141 -121 178v-520h-29v525c-42 -110 -115 -248 -182 -324c-6 9 -13 16 -21 22c83 90 149 211 198 362h-167v29
h172v191c-58 -13 -113 -23 -165 -31zM898 288v291h-191v-291h191zM678 288v291h-198v-291h198zM927 608v-406h-29v57h-191v-329h-29v329h-198v-61h-29v410h227v220h29v-220h220z" /><glyph glyph-name="uni7B80" unicode="&#x7B80;" d="M199 702c-29 -50 -64 -93 -104 -130c-7 7 -19 15 -27 19c71 59 124 139 158 239l30 -7c-11 -31 -25 -62 -40 -92h267v-29h-162c21 -36 38 -71 49 -104l-28 -10c-11 36 -28 74 -53 114h-90zM125 461h29v-530h-29v530zM196 582c47 -45 82 -87 107 -128l-25 -16
c-21 38 -56 82 -105 132zM351 364v-117h300v117h-300zM651 92v126h-300v-126h300zM351 63v-58h-29v388h358v-330h-329zM871 -14c3 -84 -127 -44 -203 -54c-1 7 -5 17 -12 30c87 -2 141 -2 162 0c16 1 24 8 24 23v540h-497v29h526v-568zM909 732v-29h-195
c30 -42 50 -77 61 -104l-27 -11c-15 39 -38 77 -68 115h-106c-25 -42 -52 -78 -83 -109c-7 7 -15 13 -26 20c59 54 103 126 132 215l30 -6c-12 -37 -24 -67 -37 -91h319z" /><glyph glyph-name="uni7CBE" unicode="&#x7CBE;" d="M133 545c-9 64 -30 134 -64 211l26 6c33 -77 55 -147 65 -210zM233 492h128v-29h-128v-40c48 -66 90 -131 126 -196l-25 -22c-19 42 -73 129 -101 175v-451h-30v462c-32 -110 -84 -245 -138 -322c-5 9 -12 19 -23 29c58 80 124 247 150 365h-144v29h155v336h30v-336z
M267 547c24 51 61 156 78 218l31 -11c-24 -68 -60 -165 -86 -217zM850 134v102h-341v-102h341zM509 366v-101h341v101h-341zM879 -24c0 -21 -8 -34 -23 -39c-13 -4 -51 -6 -116 -6c-1 9 -8 21 -12 29c57 -1 93 0 106 0c11 0 16 5 16 15v130h-341v-173h-30v463h400v-419z
M953 505v-29h-548v29h254v93h-200v29h200v84h-225v29h225v90h29v-90h240v-29h-240v-84h218v-29h-218v-93h265z" /><glyph glyph-name="uni7EC6" unicode="&#x7EC6;" d="M55 435c-2 11 -8 25 -12 33c42 22 104 130 135 181c36 59 69 124 95 185l31 -14c-60 -123 -131 -246 -204 -342l203 21c25 34 58 80 79 114l32 -15c-90 -128 -190 -253 -294 -352l294 42c-1 -7 0 -21 1 -28c-111 -19 -225 -35 -334 -55c-9 -2 -15 -4 -19 -7
c-2 9 -6 20 -12 35c33 9 100 85 140 129c30 34 59 69 88 106c-125 -18 -154 -16 -223 -33zM45 31c106 19 256 52 369 74l2 -30l-364 -75zM891 43v336h-191v-336h191zM473 43h198v336h-198v-336zM473 745v-337h198v337h-198zM891 745h-191v-337h191v337zM920 774v-827h-29v67
h-418v-74h-29v834h476z" /><glyph glyph-name="uni800C" unicode="&#x800C;" d="M782 -31c40 0 73 -10 73 22v529h-221v-557h-29v557h-220v-557h-29v557h-210v-592h-29v621h315c17 55 32 116 44 184h-415v29h883v-29h-433c-14 -55 -34 -137 -48 -184h421v-557c1 -79 -100 -45 -182 -54c-3 11 -7 21 -13 32c32 -1 63 -1 93 -1z" /><glyph glyph-name="uni80FD" unicode="&#x80FD;" d="M942 547c-9 -102 1 -144 -85 -144h-206c-69 2 -96 3 -96 65v363h29v-191c95 29 210 68 284 103l24 -24c-81 -35 -211 -77 -308 -107v-144c0 -24 21 -36 64 -36h208c65 9 47 43 57 128c7 -5 16 -9 29 -13zM416 177v125h-276v-125h276zM140 450v-119h276v119h-276zM445 -19
c2 -69 -84 -42 -154 -49c-2 10 -6 20 -13 31c42 -1 80 -1 121 0c11 0 17 6 17 17v168h-276v-218h-29v549h334v-498zM433 598c-201 -15 -247 -11 -353 -28c-1 11 -5 22 -10 32c70 48 122 152 162 230l28 -14c-45 -85 -91 -155 -138 -210l296 15c-34 53 -67 99 -99 137l22 12
c48 -56 115 -149 143 -214l-22 -15c-6 17 -20 38 -29 55zM905 276c-74 -47 -213 -88 -321 -116v-155c0 -25 22 -37 66 -37h211c24 0 40 9 47 26s11 56 14 118c9 -7 18 -11 28 -13c-10 -111 3 -159 -89 -159h-208c-72 3 -98 2 -98 66v361h29v-179c99 27 232 68 301 112z" /><glyph glyph-name="uni8150" unicode="&#x8150;" d="M445 686c-23 -38 -54 -71 -88 -104v-214h-29v187c-27 -22 -59 -50 -89 -66c-6 7 -14 14 -25 19c76 45 157 115 203 186zM770 13c-57 31 -157 76 -222 100c-41 -48 -104 -84 -189 -107l-19 22c116 29 190 82 222 159h31c-7 -19 -16 -36 -28 -53c82 -32 157 -65 224 -99z
M776 143c-59 30 -162 74 -232 100c-39 -44 -101 -76 -186 -95c-4 7 -12 16 -18 22c104 23 172 64 204 125h-251v-355h-29v384h293c7 19 12 40 15 63h30c-3 -21 -8 -42 -15 -63h281v-336c1 -72 -113 -38 -179 -46c-2 8 -8 19 -11 27c32 -1 62 -1 91 -1c37 0 70 -9 70 19v308
h-262c-4 -9 -10 -19 -17 -30c95 -35 173 -68 236 -100zM624 441c-46 26 -98 51 -157 74l17 22c50 -20 117 -48 156 -70zM784 608h147v-29h-147v-156c0 -19 -7 -31 -22 -36c-11 -4 -48 -5 -109 -5c-1 7 -5 16 -12 27c32 -1 66 -1 99 -1c10 1 15 5 15 14v157h-310v29h310v83
h29v-83zM503 835c18 -24 43 -63 60 -91h377v-29h-775c-1 -289 16 -596 -89 -789c-5 5 -18 15 -24 17c104 188 82 509 84 801h395c-15 24 -34 54 -52 81z" /><glyph glyph-name="uni81F4" unicode="&#x81F4;" d="M68 494c66 48 118 156 157 233h-161v29h437v-29h-242c-43 -88 -90 -164 -140 -227l288 27c-25 36 -56 82 -82 113l25 13c58 -70 100 -134 127 -191l-26 -17c-9 20 -19 38 -30 56c-195 -20 -238 -18 -343 -38c-1 10 -5 20 -10 31zM518 85c-153 -32 -307 -63 -461 -94
l-7 30l217 42v205h-193v29h193v137h29v-137h197v-29h-197v-199l220 44zM597 611l-9 -24c28 -144 70 -270 127 -378c61 112 95 243 117 402h-235zM459 382c76 114 131 280 164 448l30 -6c-13 -62 -28 -123 -47 -184h344v-29h-86c-24 -175 -62 -313 -132 -432
c63 -105 138 -179 225 -222c-10 -7 -18 -15 -23 -24c-86 47 -159 120 -219 219c-59 -91 -144 -165 -255 -223c-7 11 -14 20 -21 25c112 53 199 129 260 227c-56 101 -99 223 -128 358c-29 -73 -58 -132 -89 -178c-7 6 -16 17 -23 21z" /><glyph glyph-name="uni822C" unicode="&#x822C;" d="M492 486c72 59 83 168 77 303h258v-232c-6 -53 50 -25 87 -32c15 0 27 1 37 3l3 -27c-31 -6 -76 -3 -112 -3c-29 0 -44 20 -44 59v203h-200c7 -133 -15 -235 -85 -296c-4 7 -15 18 -21 22zM306 477c-13 40 -41 93 -65 129l23 9c30 -43 53 -85 69 -127zM401 394v314h-230
v-314h230zM431 -9c3 -71 -77 -49 -147 -54c-3 13 -7 24 -13 35c34 -1 76 -1 113 -1c11 1 17 7 17 19v375h-231c-4 -174 -30 -327 -93 -441c-5 8 -13 15 -23 20c58 111 85 253 87 421h-82v29h83v343h104c17 35 29 66 38 94l28 -8c-12 -28 -25 -58 -36 -86h155v-746zM308 142
c-13 47 -34 95 -61 142l25 7c31 -55 52 -101 62 -140zM560 365c31 -109 81 -198 150 -269c71 71 122 160 152 269h-302zM900 386c-31 -127 -87 -231 -168 -310c59 -51 128 -88 207 -111c-9 -8 -16 -16 -21 -25c-79 25 -148 63 -207 116c-57 -51 -125 -92 -205 -123
c-5 11 -12 19 -21 24c79 30 149 70 205 121c-74 74 -127 170 -158 287h-26v29c125 1 255 -3 376 2z" /><glyph glyph-name="uni8282" unicode="&#x8282;" d="M826 132c1 -69 -79 -47 -149 -53h-65c-1 10 -9 22 -13 30c94 -2 152 -2 174 0c16 1 24 8 24 22v321h-379v-522h-29v522h-288v29h725v-349zM939 702v-29h-258v-133h-29v133h-309v-133h-29v133h-253v29h253v128h29v-128h309v128h29v-128h258z" /><glyph glyph-name="uni8BA9" unicode="&#x8BA9;" d="M180 805c44 -38 110 -105 149 -148l-21 -24c-43 50 -92 101 -149 154zM400 142c1 -6 6 -17 10 -23c-67 -51 -150 -100 -210 -156c-5 7 -12 16 -22 25c24 16 51 47 50 82v410h-173v29h202v-462zM945 -8v-29h-587v29h253v833h29v-339h222v-29h-222v-465h305z" /><glyph glyph-name="uni8BCD" unicode="&#x8BCD;" d="M277 615c-41 53 -91 104 -150 153l21 20c67 -56 116 -106 149 -149zM382 132c1 -7 7 -17 11 -23c-60 -45 -138 -92 -190 -142c-7 11 -15 19 -22 25c24 17 51 48 50 85v404h-176v29h205v-458zM479 426v-251h218v251h-218zM479 146v-75h-29v384h276v-309h-247zM790 585
h-389v29h389v-29zM809 -40c43 0 76 -10 76 25v760h-515v29h544v-789c1 -81 -101 -47 -184 -56c-4 13 -9 24 -14 32c31 -1 62 -1 93 -1z" /><glyph glyph-name="uni8D85" unicode="&#x8D85;" d="M712 496c33 -3 72 -5 110 -5c50 0 41 23 53 77c9 39 11 101 16 186h-204c-14 -163 -83 -277 -206 -342c-7 9 -15 17 -23 24c119 55 185 161 198 318h-170v29h435c-5 -94 -12 -187 -18 -225c-13 -67 -14 -90 -74 -94c-25 -1 -61 0 -109 3c-1 10 -4 20 -8 29zM555 119h316
v246h-316v-246zM526 394h374v-304h-374v304zM40 -54c63 100 75 267 78 438l31 -2l-7 -147c24 -87 63 -150 117 -187v429h-199v29h191v156h-173v29h173v140h29v-140h173v-29h-173v-156h196v-29h-188v-177h181v-29h-181v-241c142 -71 456 -37 672 -45c-8 -10 -13 -20 -15 -29
h-383c-252 3 -353 40 -427 211c-12 -102 -36 -182 -71 -241c-7 7 -15 13 -24 20z" /><glyph glyph-name="uni8E0F" unicode="&#x8E0F;" d="M601 684c-26 -128 -98 -237 -195 -293c-7 9 -14 16 -21 22c89 47 149 130 181 247h-157v29c57 1 117 -1 173 1zM118 529h227v225h-227v-225zM403 127l4 -27c-116 -37 -232 -74 -349 -111l-9 30l54 15v351h29v-342l88 28v429h-131v283h285v-283h-125v-170h129v-29h-129
v-221zM494 304v-132h367v132h-367zM861 0v143h-367v-143h367zM465 333h425v-397h-29v35h-367v-39h-29v401zM768 593c48 -77 114 -145 200 -176c-6 -4 -13 -12 -20 -24c-122 49 -210 174 -258 309v-295c0 -21 -8 -34 -23 -39c-13 -4 -49 -6 -110 -6c-1 10 -9 22 -13 30
c55 -1 89 0 102 0c10 0 15 5 15 15v420h29v-50c17 -59 39 -113 66 -163c59 47 107 91 143 134l25 -19c-45 -49 -97 -94 -156 -136z" /><glyph glyph-name="uni8FC7" unicode="&#x8FC7;" d="M732 612h-402v29h402v188h30v-188h155v-29h-155v-464c0 -27 -12 -44 -37 -50c-17 -4 -75 -6 -174 -6c-2 10 -8 22 -13 31c85 -2 141 -3 168 -1c17 1 26 11 26 26v464zM422 496c63 -73 110 -140 143 -199l-23 -13c-36 65 -84 132 -143 201zM254 625
c-39 55 -90 111 -153 166l23 15c65 -57 116 -112 153 -164zM54 -11c47 49 101 113 163 132v300h-160v29h189v-329c62 -37 108 -99 198 -110c147 -18 356 -5 507 4c-5 -9 -8 -18 -9 -29c-202 0 -534 -50 -647 70c-13 13 -48 43 -63 43c-18 0 -40 -12 -68 -36
c-23 -20 -53 -51 -90 -94z" /><glyph glyph-name="uni8FD9" unicode="&#x8FD9;" d="M626 679c-20 48 -48 97 -83 146l27 8c28 -39 66 -99 83 -142zM869 91c-57 57 -136 126 -238 209c-81 -88 -189 -159 -323 -212c-6 11 -13 20 -20 27c131 47 238 115 319 203c-90 71 -181 140 -276 206l22 18c93 -65 184 -132 274 -201c66 78 117 175 153 290h-481v29h644
v-29h-131c-37 -123 -91 -225 -162 -308c77 -63 178 -143 244 -209zM226 612c-32 51 -81 103 -147 155l23 15c65 -50 114 -101 148 -152zM50 -30c50 47 90 84 151 101v348h-146v29h175v-377c64 -27 107 -75 195 -82c157 -13 383 -4 527 8c-6 -11 -10 -23 -11 -36
c-211 -1 -545 -47 -675 59c-13 11 -40 26 -50 24c-59 -10 -97 -55 -143 -100z" /><glyph glyph-name="uni901A" unicode="&#x901A;" d="M877 550h-231v-122h231v122zM877 273v126h-231v-126h231zM617 273v126h-222v-126h222zM395 550v-122h222v122h-222zM485 709c45 -15 98 -36 157 -63c80 29 149 67 206 113h-490v29c176 1 357 -3 529 2l21 -15c-60 -58 -138 -106 -233 -144c32 -16 74 -35 100 -52h131
v-472c0 -22 -9 -36 -26 -41c-15 -4 -60 -6 -137 -6c-1 8 -8 21 -11 29c40 -1 84 -1 126 -1c13 1 19 7 19 19v137h-231v-179h-29v179h-222v-183h-29v518h346c-72 38 -154 75 -246 110zM249 601c-39 52 -94 109 -165 171l22 14c71 -58 126 -114 166 -168zM53 -32
c55 62 90 108 156 131v334h-156v29h185v-365c67 -34 121 -93 212 -105c147 -19 356 -5 512 4c-5 -11 -9 -22 -10 -32c-168 -2 -513 -39 -633 48c-26 19 -66 62 -99 62c-17 0 -38 -12 -64 -37c-21 -19 -48 -50 -81 -91z" /><glyph glyph-name="uni9053" unicode="&#x9053;" d="M507 697c-15 38 -41 79 -78 122l23 12c39 -41 65 -81 80 -121zM817 518h-398v-112h398v112zM817 377h-398v-114h398v114zM817 234h-398v-115h398v115zM694 685c28 35 66 99 89 144l31 -11c-26 -43 -58 -96 -86 -133h213v-29h-307c-12 -33 -26 -81 -39 -109h251v-457h-456
v457h175c15 41 27 78 36 109h-291v29h384zM231 610c-33 52 -81 107 -146 166l23 14c65 -57 114 -112 148 -163zM59 -22c55 55 90 100 157 118v350h-160v29h189v-382c56 -35 104 -84 189 -93c152 -16 373 -5 517 6c-5 -11 -9 -22 -10 -32c-211 0 -536 -49 -655 60
c-42 38 -72 53 -124 5c-21 -20 -50 -45 -82 -82z" /><glyph glyph-name="uni9884" unicode="&#x9884;" d="M424 765c-41 -68 -112 -149 -175 -200c47 -36 83 -65 107 -86l-16 -17c32 1 69 -3 98 2l20 -9c-27 -61 -66 -154 -97 -201l-26 10c29 46 57 109 82 169h-158v-456c0 -22 -9 -35 -26 -40c-14 -4 -57 -6 -129 -6c-2 8 -6 17 -12 28c65 -1 105 -1 119 0c13 1 19 7 19 18v456
h-180v29h279c-57 51 -156 129 -221 173l21 17l98 -71c55 43 105 99 150 166h-308v29c111 1 227 -3 334 2zM420 -43c156 55 270 131 270 339v216h29c-5 -146 18 -315 -43 -409c-53 -82 -132 -133 -239 -170c-3 8 -9 16 -17 24zM747 129c83 -60 148 -117 195 -170l-21 -23
c-49 56 -114 114 -195 173zM947 780v-29h-207c-14 -39 -34 -99 -48 -131h214v-469h-29v440h-337v-440h-29v469h150c17 40 31 84 44 131h-234v29h476z" /><glyph glyph-name="uniFF0C" unicode="&#xFF0C;" d="M108 -51c79 40 120 99 123 176c-41 -12 -78 4 -78 49c0 36 18 54 53 54c42 0 63 -31 63 -93c-1 -106 -65 -179 -148 -211z" /></font>
</defs>
</svg>
